<svg xmlns="http://www.w3.org/2000/svg" version="1.1" xmlns:xlink="http://www.w3.org/1999/xlink" xmlns:svgjs="http://svgjs.com/svgjs" width="375" height="605" preserveAspectRatio="none" viewBox="0 0 375 605"><g mask="url(&quot;#SvgjsMask1066&quot;)" fill="none"><rect width="375" height="605" x="0" y="0" fill="rgba(248, 246, 246, 1)"></rect><path d="M0,270.147C48.933,261.369,83.411,220.584,120.451,187.425C152.059,159.128,179.45,128.468,199.825,91.257C221.554,51.572,248.635,9.961,242.137,-34.814C235.641,-79.576,199.691,-113.728,165.741,-143.615C134.998,-170.68,96.233,-182.727,57.857,-197.043C16.405,-212.507,-24.887,-241.699,-67.745,-230.719C-110.788,-219.691,-133.594,-174.549,-162.305,-140.638C-190.67,-107.135,-217.767,-74.291,-234.531,-33.72C-255.593,17.253,-287.834,71.339,-271.683,124.074C-255.327,177.479,-201.036,209.823,-151.843,236.272C-105.224,261.337,-52.098,279.493,0,270.147" fill="#e5dddd"></path><path d="M375 835.35C417.352 833.936 442.252 787.98 478.673 766.318 516.88 743.594 578.9739999999999 746.859 594.079 705.05 609.527 662.292 556.17 624.71 545.828 580.439 536.792 541.758 561.84 495.55899999999997 537.762 463.966 513.719 432.419 465.87 436.308 427.716 425.46500000000003 389.946 414.731 353.896 395.279 315.001 400.661 273.007 406.471 231.641 424.68600000000004 203.593 456.475 175.441 488.382 160.79 531.801 161.762 574.341 162.667 613.961 190.231 645.885 208.723 680.936 226.055 713.788 239.562 748.1179999999999 266.78 773.394 297.868 802.264 332.598 836.766 375 835.35" fill="#ffffff"></path></g><defs><mask id="SvgjsMask1066"><rect width="375" height="605" fill="#ffffff"></rect></mask></defs></svg>